<svg xmlns="http://www.w3.org/2000/svg" xmlns:xlink="http://www.w3.org/1999/xlink" width="124" height="124" viewBox="0 0 124 124">
  <defs>
    <clipPath id="clip-path">
      <rect id="Rect치ngulo_377629" data-name="Rect치ngulo 377629" width="66.665" height="66.654" fill="#fff"/>
    </clipPath>
  </defs>
  <g id="Grupo_1072370" data-name="Grupo 1072370" transform="translate(-380 -1684)">
    <g id="Grupo_1071989" data-name="Grupo 1071989" transform="translate(111 726)">
      <circle id="Elipse_5614" data-name="Elipse 5614" cx="62" cy="62" r="62" transform="translate(269 958)" fill="#0a5e6b"/>
    </g>
    <g id="Grupo_1072091" data-name="Grupo 1072091" transform="translate(408.335 1721.673)">
      <g id="Grupo_1072090" data-name="Grupo 1072090" transform="translate(0 0)" clip-path="url(#clip-path)">
        <path id="Trazado_609150" data-name="Trazado 609150" d="M35.189,14.85A24.671,24.671,0,0,1,48.72,11.71c3.354.092,6.714.017,10.19.017v7.78h7.755v43.23H65.531c-6.112,0-12.222.017-18.334-.006a11.759,11.759,0,0,0-8.515,3.395,1.96,1.96,0,0,1-1.211.5c-2.747.043-5.5.047-8.244,0a2.136,2.136,0,0,1-1.3-.545,11.771,11.771,0,0,0-8.43-3.343c-6.471.021-12.942.006-19.5.006V15.664H7.686V7.871h7.83V.137A17.973,17.973,0,0,1,35.189,14.85m19.788.818c-3.23,0-6.341-.1-9.44.026a18.376,18.376,0,0,0-9.329,3.11,1.805,1.805,0,0,0-.946,1.735c.036,10.769.023,21.54.023,32.311v1.181c.412-.2.7-.331.978-.472A20.094,20.094,0,0,1,44.407,51.2c3.138-.145,6.281-.132,9.421-.186.38-.006.761,0,1.149,0ZM3.9,19.573v39.25H5.166q7.319,0,14.642,0c2.764,0,5.539.446,7.695,2.145a9.29,9.29,0,0,0,6.847,1.762c.54-.032,1.09.043,1.626-.021a2.137,2.137,0,0,0,1.066-.378,15.583,15.583,0,0,1,10.224-3.516c4.772.019,9.545,0,14.317,0h1.179V23.543H58.889V54.925h-1.25c-3.578,0-7.159-.013-10.737,0a19.086,19.086,0,0,0-11.083,3.461,6.629,6.629,0,0,1-4.96.006,19.112,19.112,0,0,0-11.19-3.469c-3.578-.006-7.157,0-10.737,0H7.669V19.573ZM31.331,45.732c.021-.346.043-.517.043-.688,0-9.222.032-18.447-.015-27.669A13.573,13.573,0,0,0,22.245,4.754c-.865-.3-1.769-.489-2.713-.743V39.394c4.965.775,7.785,2.282,11.8,6.338M11.707,11.761V51c6.539.113,13.16-.758,19.2,2.7-2.363-7.556-7.689-10.771-15.433-10.532V11.761Z" transform="translate(0 -0.001)" fill="#fff"/>
      </g>
    </g>
    <path id="Sustracci칩n_108" data-name="Sustracci칩n 108" d="M11024,11764h-29v-27.489a62.518,62.518,0,0,1,29,.4V11764Z" transform="translate(-10567 -10051)" fill="#fff"/>
    <text id="_01" data-name="01" transform="translate(433 1706)" fill="#0a5e6b" font-size="16" font-family="Roboto-Black, Roboto" font-weight="800"><tspan x="0" y="0">01</tspan></text>
  </g>
</svg>
