<svg xmlns="http://www.w3.org/2000/svg" xmlns:xlink="http://www.w3.org/1999/xlink" width="124" height="124" viewBox="0 0 124 124">
  <defs>
    <clipPath id="clip-path">
      <rect id="Rect치ngulo_377644" data-name="Rect치ngulo 377644" width="68.406" height="68.224" fill="#fff"/>
    </clipPath>
  </defs>
  <g id="Grupo_1072370" data-name="Grupo 1072370" transform="translate(9178.332 9822)">
    <g id="Grupo_1072089" data-name="Grupo 1072089" transform="translate(-9447.332 -10780)">
      <circle id="Elipse_5614" data-name="Elipse 5614" cx="62" cy="62" r="62" transform="translate(269 958)" fill="#0a5e6b"/>
    </g>
    <path id="Sustracci칩n_114" data-name="Sustracci칩n 114" d="M11024,11764h-29v-27.489a62.518,62.518,0,0,1,29,.4V11764Z" transform="translate(-20124.998 -21557)" fill="#fff"/>
    <text id="_04" data-name="04" transform="translate(-9125 -9802)" fill="#0a5e6b" font-size="16" font-family="Roboto-Black, Roboto" font-weight="800"><tspan x="0" y="0">04</tspan></text>
    <g id="Grupo_1072103" data-name="Grupo 1072103" transform="translate(-9150.535 -9782.921)">
      <g id="Grupo_1072102" data-name="Grupo 1072102" transform="translate(0 0)" clip-path="url(#clip-path)">
        <path id="Trazado_609162" data-name="Trazado 609162" d="M26.907,0c1.14.107,2.279.18,3.408.326a26.2,26.2,0,0,1,9.75,3.249A26.742,26.742,0,0,1,50.9,14.941a26.3,26.3,0,0,1,2.251,6.428,25.236,25.236,0,0,1,.6,5.208,24.527,24.527,0,0,1-.483,5.03,31.525,31.525,0,0,1-1.347,4.735,11.524,11.524,0,0,1-.554,1.276.444.444,0,0,0,.111.607c1,.985,1.994,1.979,2.988,2.971q5.615,5.593,11.225,11.188a9.381,9.381,0,0,1,2.594,5.145,8.646,8.646,0,0,1-1.128,5.9,9.02,9.02,0,0,1-5.89,4.455c-.521.13-1.057.2-1.586.291a6.7,6.7,0,0,1-2.446-.213,9.1,9.1,0,0,1-4.791-2.548Q45.724,58.746,39.03,52.059c-.262-.262-.542-.5-.791-.778a.333.333,0,0,0-.441-.086c-.674.274-1.343.561-2.025.808a27.8,27.8,0,0,1-5.051,1.28,24,24,0,0,1-7.1.1,26.707,26.707,0,0,1-17.678-9.9,26.222,26.222,0,0,1-4.785-9.1,29.494,29.494,0,0,1-1.149-7.26,23.384,23.384,0,0,1,.161-2.588,23.65,23.65,0,0,1,1.069-5.484A26.59,26.59,0,0,1,9.759,6.315,27.091,27.091,0,0,1,22.963.389c1.3-.2,2.626-.264,3.944-.389m-4.85,48.2a22.6,22.6,0,0,0,11.543-.49,20.575,20.575,0,0,0,9.572-6.3.687.687,0,0,0-.27-.04c-1.32,0-2.643.019-3.963,0a2.191,2.191,0,0,1-2.078-1.5,2.239,2.239,0,0,1,.439-2.45,2.823,2.823,0,0,1,2.228-.87q3.393-.006,6.783,0c.163,0,.285,0,.375-.2a22.74,22.74,0,0,0,1.772-5.294c.115-.594.167-1.2.251-1.816-.123-.013-.174-.023-.224-.023-3.118,0-6.235-.013-9.353.006a2.351,2.351,0,0,1-1.8-.768,2.4,2.4,0,0,1-.383-2.7A2.712,2.712,0,0,1,39.52,24.38q4.391-.009,8.781,0h.375c0-.142,0-.236,0-.331,0-.073-.008-.149-.017-.222a22.584,22.584,0,0,0-1.743-6.055,1.042,1.042,0,0,0-1.151-.741c-7.788.025-15.575.015-23.363.015h-.345Zm-4.9-1.73V43.828q0-13.213,0-26.428c0-.95,0-1.9.023-2.852a2.138,2.138,0,0,1,1.408-2.032,3.885,3.885,0,0,1,1.471-.3q11.38-.028,22.764-.013h.4A21.976,21.976,0,0,0,4.992,28.776,21.276,21.276,0,0,0,9.606,40.365a22.08,22.08,0,0,0,7.555,6.107m25.26,2.113c.448.473.852.916,1.276,1.341q6.016,6,12.035,11.991a4.551,4.551,0,0,0,4.088,1.312A4.382,4.382,0,0,0,63.4,57.758a5.238,5.238,0,0,0-1.563-2.448Q55.4,48.92,48.985,42.518c-.071-.071-.153-.138-.259-.234a26.9,26.9,0,0,1-6.3,6.3" transform="translate(0 0)" fill="#fff"/>
        <path id="Trazado_609163" data-name="Trazado 609163" d="M16.526,13.242c.724-.724,1.4-1.408,2.082-2.08.452-.444.893-.9,1.383-1.3a2.38,2.38,0,0,1,3.17.218,2.309,2.309,0,0,1,.172,3.157c-.308.375-.667.707-1.011,1.05Q20.464,16.147,18.6,18c-.163.165-.347.31-.515.469a2.394,2.394,0,0,1-2.952.071c-.253-.226-.5-.45-.743-.688-.709-.711-1.446-1.4-2.107-2.149a2.306,2.306,0,0,1,.247-3.312,2.341,2.341,0,0,1,3.17.008c.287.247.531.54.826.843" transform="translate(12.774 10.219)" fill="#fff"/>
        <path id="Trazado_609164" data-name="Trazado 609164" d="M16.571,19.066c.688-.7,1.343-1.389,2.015-2.057a18.841,18.841,0,0,1,1.477-1.385,2.375,2.375,0,0,1,3.072.239,2.319,2.319,0,0,1,.3,3.055,5.045,5.045,0,0,1-.517.6q-2.159,2.162-4.331,4.314c-.126.128-.27.236-.4.366a2.425,2.425,0,0,1-3.251,0c-.891-.887-1.808-1.749-2.651-2.68a2.278,2.278,0,0,1,.061-3.132,2.344,2.344,0,0,1,3.373-.159c.282.249.538.527.849.837" transform="translate(12.773 16.568)" fill="#fff"/>
      </g>
    </g>
  </g>
</svg>
