<svg xmlns="http://www.w3.org/2000/svg" xmlns:xlink="http://www.w3.org/1999/xlink" width="124" height="124" viewBox="0 0 124 124">
  <defs>
    <clipPath id="clip-path">
      <rect id="Rect치ngulo_377643" data-name="Rect치ngulo 377643" width="73.174" height="64.412" fill="#fff"/>
    </clipPath>
  </defs>
  <g id="Grupo_1072370" data-name="Grupo 1072370" transform="translate(-1089.668 -1684)">
    <g id="Grupo_1071987" data-name="Grupo 1071987" transform="translate(820.668 726)">
      <circle id="Elipse_5614" data-name="Elipse 5614" cx="62" cy="62" r="62" transform="translate(269 958)" fill="#0a5e6b"/>
    </g>
    <path id="Sustracci칩n_112" data-name="Sustracci칩n 112" d="M11024,11764h-29v-27.489a62.518,62.518,0,0,1,29,.4V11764Z" transform="translate(-9856.998 -10051)" fill="#fff"/>
    <text id="_03" data-name="03" transform="translate(1143 1706)" fill="#0a5e6b" font-size="16" font-family="Roboto-Black, Roboto" font-weight="800"><tspan x="0" y="0">03</tspan></text>
    <g id="Grupo_1072101" data-name="Grupo 1072101" transform="translate(1115.914 1724.449)">
      <g id="Grupo_1072100" data-name="Grupo 1072100" transform="translate(0 -0.001)" clip-path="url(#clip-path)">
        <path id="Trazado_609158" data-name="Trazado 609158" d="M50.615,38.615V17.373A2.164,2.164,0,0,1,52.9,15.046q5.272-.019,10.549,0a2.1,2.1,0,0,1,2.156,2.075c.023.415.013.831.013,1.248q0,9.64,0,19.278v.979c.127.006.232.017.336.017,1.664,0,3.327-.008,4.991,0a2.2,2.2,0,0,1,2.206,1.929A2.147,2.147,0,0,1,71.277,42.9c-.267.019-.534.025-.8.025q-33.876,0-67.75-.008a3.7,3.7,0,0,1-1.419-.2A2.032,2.032,0,0,1,.054,40.354a2.23,2.23,0,0,1,2.212-1.716c1.595-.01,3.189,0,4.784,0h.5V37.4c0-3-.01-6-.006-9a4.572,4.572,0,0,1,.09-1A2.093,2.093,0,0,1,9.57,25.793c.5-.023,1.008-.021,1.513-.021l9.272.013a2.17,2.17,0,0,1,2.208,2.16q.006,5.138,0,10.278c0,.127,0,.253,0,.413h.355l5.794.017c.363,0,.351,0,.351-.388q-.006-4.4,0-8.794,0-13.441,0-26.882a2.838,2.838,0,0,1,.278-1.413A2.167,2.167,0,0,1,31.381,0Q33.7,0,36.017,0q2.837,0,5.675,0a2.244,2.244,0,0,1,2.427,2.34c.017.426.006.852.006,1.277q0,17.348,0,34.7c0,.2,0,.332.271.33,1.981-.01,3.962-.006,5.942-.008.077,0,.154-.01.273-.021m-10.8-34.27a.489.489,0,0,0-.111-.031c-2.06,0-4.12,0-6.178-.013-.173,0-.2.075-.192.217.013.346.017.693.017,1.039q0,15.476,0,30.954c0,.624-.006,1.246-.023,1.87-.006.2.031.28.257.273.783-.019,1.565-.017,2.348-.019,1.217,0,2.436-.006,3.655,0,.186,0,.246-.046.232-.234-.019-.207-.006-.415-.006-.624V4.345m15.1,34.289H61.3v-19.3H54.917Zm-36.65-8.574h-6.4v8.576h6.4Z" transform="translate(0 0)" fill="#fff"/>
        <path id="Trazado_609159" data-name="Trazado 609159" d="M24.255,31.191c0-1.881.029-3.763-.008-5.644a2.332,2.332,0,0,1,2.453-2.43c2.864-.006,5.725,0,8.587,0H37.9a2.364,2.364,0,0,1,2.5,2.413c.027,1.365.015,2.732.015,4.1q0,3.622,0,7.247a2.325,2.325,0,0,1-.952,1.979,2.2,2.2,0,0,1-1.336.424q-5.72.009-11.438,0a2.511,2.511,0,0,1-1.52-.424,2.117,2.117,0,0,1-.906-1.808c-.006-1.949,0-3.9,0-5.851m4.308-3.772v7.535h7.489a.528.528,0,0,0,.04-.115q0-3.6,0-7.211c0-.211-.113-.209-.265-.209q-2.821,0-5.642,0H28.563" transform="translate(26.361 25.132)" fill="#fff"/>
        <path id="Trazado_609160" data-name="Trazado 609160" d="M11.759,39.8q-3.61,0-7.22,0a2.408,2.408,0,0,1-1.822-.641,2.128,2.128,0,0,1-.338-2.642q3.676-6.268,7.353-12.54a2.629,2.629,0,0,1,.914-1.033,2.044,2.044,0,0,1,2.822.632c.474.705.879,1.455,1.309,2.19Q17.892,31.077,21,36.391a2.151,2.151,0,0,1-.136,2.647,2.278,2.278,0,0,1-1.826.764q-3.641,0-7.28,0M7.912,35.5h7.633c-1.279-2.194-2.538-4.35-3.811-6.535C10.459,31.14,9.2,33.3,7.912,35.5" transform="translate(2.246 24.607)" fill="#fff"/>
        <path id="Trazado_609161" data-name="Trazado 609161" d="M30.589,31.141A8.587,8.587,0,1,1,22,22.635a8.562,8.562,0,0,1,8.591,8.506m-12.866.094a4.24,4.24,0,0,0,4.325,4.275,4.309,4.309,0,1,0-.1-8.618,4.227,4.227,0,0,0-4.225,4.344" transform="translate(14.585 24.611)" fill="#fff"/>
      </g>
    </g>
  </g>
</svg>
