<svg xmlns="http://www.w3.org/2000/svg" width="101.541" height="101.541" viewBox="0 0 101.541 101.541">
  <g id="marketing" transform="translate(-1 -1)">
    <path id="Trazado_596162" data-name="Trazado 596162" d="M94.352,73.061H69.786V35.042a17.96,17.96,0,0,0,1.731-1l5.858,7.322a14.951,14.951,0,1,0,2.566-2.037L74.07,31.985a17.959,17.959,0,0,0,5.46-11.332h5.621L88.427,27.2h13.489l-4.094-8.189,4.094-8.189H88.427l-3.276,6.551H79.531A17.993,17.993,0,0,0,50.061,5.2,4.907,4.907,0,0,0,45.219,1H25.566a4.907,4.907,0,0,0-4.612,3.276H9.189A8.2,8.2,0,0,0,1,12.464V94.352a8.2,8.2,0,0,0,8.189,8.189H61.6a8.2,8.2,0,0,0,8.189-8.189V89.439H94.352a8.189,8.189,0,1,0,0-16.378Zm4.913-21.291A11.464,11.464,0,1,1,87.8,40.306,11.479,11.479,0,0,1,99.265,51.771ZM90.451,23.929l-1.638-3.276h6.165l1.638,3.276Zm0-9.827h6.165l-1.638,3.276H88.813Zm-69.5,0a4.907,4.907,0,0,0,4.612,3.276h18.1c-.049.54-.084,1.084-.084,1.638A17.953,17.953,0,0,0,49.44,32.271l-2.5,3.277a21.484,21.484,0,1,0,2.6,1.993l2.5-3.282a17.864,17.864,0,0,0,7.919,2.688V73.061H51.472L39.627,77.5a4,4,0,0,0,0,7.493l11.846,4.442h8.487v3.276H10.827V14.1ZM43.582,61.6H40.306v-13.1h3.276Zm-6.551,0H33.755V45.219h3.276Zm-6.551,0H27.2V55.046H30.48Zm18.8,3.276a17.994,17.994,0,0,1-27.773,0ZM51.42,61.6H46.857V45.219H40.306V41.944H30.48v9.827H23.929V61.6H19.366a18.015,18.015,0,1,1,32.054,0ZM40.778,81.931a.727.727,0,0,1,0-1.361l9.355-3.508v8.375Zm12.63,4.232V82.888H86.163v3.276Zm32.755-6.551H53.408V76.337H86.163ZM66.51,73.061H63.235V36.947a17.723,17.723,0,0,0,3.276-.616ZM61.6,4.276a14.756,14.756,0,0,1,14.643,13.1H69.62a8.189,8.189,0,1,0,0,3.276h6.62A14.737,14.737,0,1,1,61.6,4.276Zm4.612,16.378a4.913,4.913,0,1,1,0-3.276h-6.25v3.276ZM23.929,5.913a1.639,1.639,0,0,1,1.638-1.638H45.219a1.639,1.639,0,0,1,1.638,1.638V8.689a17.913,17.913,0,0,0-2.575,5.4L25.566,14.1a1.639,1.639,0,0,1-1.638-1.638ZM66.51,94.352A4.919,4.919,0,0,1,61.6,99.265H9.189a4.919,4.919,0,0,1-4.913-4.913V12.464A4.919,4.919,0,0,1,9.189,7.551H20.653v3.276H10.827A3.279,3.279,0,0,0,7.551,14.1V92.714a3.279,3.279,0,0,0,3.276,3.276H59.959a3.279,3.279,0,0,0,3.276-3.276V89.439H66.51Zm27.842-8.189H89.439V76.337h4.913a4.913,4.913,0,1,1,0,9.827Z" transform="translate(0)" fill="#0a5e6b"/>
    <path id="Trazado_596163" data-name="Trazado 596163" d="M49,39.09a4.289,4.289,0,0,0,6.205,3.836l7.8-3.9a4.29,4.29,0,0,0,0-7.671l-7.8-3.9A4.289,4.289,0,0,0,49,31.288Zm3.276-7.8a1.012,1.012,0,0,1,1.464-.906l7.8,3.9a1.012,1.012,0,0,1,0,1.811L53.74,40a1.041,1.041,0,0,1-1.464-.906Z" transform="translate(30.612 16.582)" fill="#0a5e6b"/>
    <path id="Trazado_596164" data-name="Trazado 596164" d="M9,49H28.653v3.276H9Z" transform="translate(5.102 30.612)" fill="#0a5e6b"/>
    <path id="Trazado_596165" data-name="Trazado 596165" d="M9,53H28.653v3.276H9Z" transform="translate(5.102 33.163)" fill="#0a5e6b"/>
    <path id="Trazado_596166" data-name="Trazado 596166" d="M9,13h3.276v3.276H9Z" transform="translate(5.102 7.653)" fill="#0a5e6b"/>
    <path id="Trazado_596167" data-name="Trazado 596167" d="M13,13H32.653v3.276H13Z" transform="translate(7.653 7.653)" fill="#0a5e6b"/>
    <path id="Trazado_596168" data-name="Trazado 596168" d="M9,17h3.276v3.276H9Z" transform="translate(5.102 10.204)" fill="#0a5e6b"/>
    <path id="Trazado_596169" data-name="Trazado 596169" d="M13,17H32.653v3.276H13Z" transform="translate(7.653 10.204)" fill="#0a5e6b"/>
  </g>
</svg>
