<svg xmlns="http://www.w3.org/2000/svg" xmlns:xlink="http://www.w3.org/1999/xlink" width="124" height="124" viewBox="0 0 124 124">
  <defs>
    <clipPath id="clip-path">
      <rect id="Rect치ngulo_377646" data-name="Rect치ngulo 377646" width="65.034" height="64.784" fill="#fff"/>
    </clipPath>
  </defs>
  <g id="Grupo_1072370" data-name="Grupo 1072370" transform="translate(8468.332 9822)">
    <g id="Grupo_1072087" data-name="Grupo 1072087" transform="translate(-8737.332 -10780)">
      <circle id="Elipse_5614" data-name="Elipse 5614" cx="62" cy="62" r="62" transform="translate(269 958)" fill="#0a5e6b"/>
    </g>
    <path id="Sustracci칩n_118" data-name="Sustracci칩n 118" d="M11024,11764h-29v-27.489a62.518,62.518,0,0,1,29,.4V11764Z" transform="translate(-19414.998 -21557)" fill="#fff"/>
    <text id="_06" data-name="06" transform="translate(-8415 -9800)" fill="#0a5e6b" font-size="16" font-family="Roboto-Black, Roboto" font-weight="800"><tspan x="0" y="0">06</tspan></text>
    <g id="Grupo_1072107" data-name="Grupo 1072107" transform="translate(-8434.146 -9782.755)">
      <g id="Grupo_1072106" data-name="Grupo 1072106" transform="translate(0 -0.001)" clip-path="url(#clip-path)">
        <path id="Trazado_609167" data-name="Trazado 609167" d="M0,46.574V26.317c2.815,0,5.585-.084,8.345.029a5.677,5.677,0,0,0,4.524-1.729,12.043,12.043,0,0,1,8.615-3.357c3.514-.025,7.03.061,10.544-.025,3.46-.084,6.164,1.113,7.976,4.3.315-.3.589-.547.852-.808,1.47-1.459,2.923-2.94,4.41-4.383a12.721,12.721,0,0,1,17.776,0c.605.587,1.2,1.18,1.992,1.954-.743.683-1.478,1.309-2.161,1.988C56.814,30.3,50.742,36.3,44.727,42.363a13.615,13.615,0,0,1-10.181,4.228c-11.108-.048-22.215-.017-33.325-.017ZM57.282,22.561a7.406,7.406,0,0,0-8.588,1.516q-5.027,4.964-10,9.972a7.757,7.757,0,0,1-5.756,2.4c-2.389-.015-4.777,0-7.168-.006-.3,0-.6-.04-.864-.058V31.38c2.652,0,5.245,0,7.838,0,1.783,0,2.879-.954,2.894-2.489.015-1.56-1.123-2.562-2.944-2.564-3.654-.006-7.308,0-10.964,0A7.531,7.531,0,0,0,16.1,28.518,9.226,9.226,0,0,1,8.6,31.4c-1.175-.073-2.357-.013-3.518-.013V41.5h.768q14.651,0,29.306,0A7.713,7.713,0,0,0,40.8,39.091c1.86-1.867,3.737-3.716,5.6-5.583,3.618-3.631,7.23-7.268,10.886-10.947" transform="translate(0 18.192)" fill="#fff"/>
        <path id="Trazado_609168" data-name="Trazado 609168" d="M41.3,17.732A17.741,17.741,0,1,1,23.571,0,17.689,17.689,0,0,1,41.3,17.732M36.232,17.7A12.653,12.653,0,1,0,23.584,30.374,12.631,12.631,0,0,0,36.232,17.7" transform="translate(6.33 0)" fill="#fff"/>
        <path id="Trazado_609169" data-name="Trazado 609169" d="M16.185,19.855q-3.013-3.019-5.953-5.969l3.61-3.625c.729.848,1.478,1.716,2.343,2.723L23.73,5.212l3.47,3.56Q21.77,14.237,16.185,19.855" transform="translate(11.131 5.671)" fill="#fff"/>
      </g>
    </g>
  </g>
</svg>
