<svg xmlns="http://www.w3.org/2000/svg" xmlns:xlink="http://www.w3.org/1999/xlink" width="124" height="124" viewBox="0 0 124 124">
  <defs>
    <clipPath id="clip-path">
      <rect id="Rect치ngulo_377645" data-name="Rect치ngulo 377645" width="67.07" height="66.84" fill="#fff"/>
    </clipPath>
  </defs>
  <g id="Grupo_1072370" data-name="Grupo 1072370" transform="translate(8818.332 9822)">
    <g id="Grupo_1072088" data-name="Grupo 1072088" transform="translate(-9087.332 -10780)">
      <circle id="Elipse_5614" data-name="Elipse 5614" cx="62" cy="62" r="62" transform="translate(269 958)" fill="#0a5e6b"/>
    </g>
    <path id="Sustracci칩n_116" data-name="Sustracci칩n 116" d="M11024,11764h-29v-27.489a62.518,62.518,0,0,1,29,.4V11764Z" transform="translate(-19764.998 -21557)" fill="#fff"/>
    <text id="_05" data-name="05" transform="translate(-8765 -9800)" fill="#0a5e6b" font-size="16" font-family="Roboto-Black, Roboto" font-weight="800"><tspan x="0" y="0">05</tspan></text>
    <g id="Grupo_1072105" data-name="Grupo 1072105" transform="translate(-8788.92 -9782.307)">
      <g id="Grupo_1072104" data-name="Grupo 1072104" transform="translate(0 0)" clip-path="url(#clip-path)">
        <path id="Trazado_609165" data-name="Trazado 609165" d="M34.723,29.419c-.787,0-1.565,0-2.346,0-.861,0-1.722,0-2.585-.016-.213,0-.253.062-.253.263,0,2.258-.01,4.517-.012,6.775a2.114,2.114,0,0,1-2.213,2.1c-.389.02-.781,0-1.17,0a1.606,1.606,0,0,0-1.571,1.078,1.683,1.683,0,0,0,.5,1.85,1.536,1.536,0,0,0,1.062.415c.446-.012.889-.016,1.335-.014a1.976,1.976,0,0,1,2.041,1.906c.034.57.032,1.142.034,1.714q0,3.386,0,6.775a8,8,0,0,1-.05,1.005,1.926,1.926,0,0,1-1.929,1.688,18.931,18.931,0,0,1-3.656-.265c-.861-.171-1.74-.257-2.593-.46a27.024,27.024,0,0,1-5.2-1.788A27.516,27.516,0,0,1,3.141,40.127a26.746,26.746,0,0,1-2.035-5.053,28.316,28.316,0,0,1-.9-4.327,25.467,25.467,0,0,1-.072-5.89,28.09,28.09,0,0,1,.773-4.27,27.092,27.092,0,0,1,3.438-7.824,27.847,27.847,0,0,1,6.554-7.1,26.765,26.765,0,0,1,5.458-3.235A20.929,20.929,0,0,1,20.11,1.087C21.368.8,22.62.441,23.895.26a26.26,26.26,0,0,1,5.7-.183A28.823,28.823,0,0,1,33.168.6,27.051,27.051,0,0,1,43.326,4.968a27.522,27.522,0,0,1,11.18,16.644,23.688,23.688,0,0,1,.606,5.93,1.912,1.912,0,0,1-1.947,1.888c-2.332,0-4.664,0-7-.008-.211,0-.277.06-.307.265a5.583,5.583,0,0,1-10.921.606c-.074-.289-.144-.578-.219-.875m-30.667,0A23.148,23.148,0,0,0,12.725,45.84,23.694,23.694,0,0,0,25.594,51c.022-.044.028-.052.028-.06.008-1.66.012-3.319.024-4.979,0-.165-.086-.193-.209-.223-.307-.074-.618-.142-.919-.235a5.555,5.555,0,0,1,.857-10.819c.2-.03.253-.1.251-.291-.01-1.569-.01-3.139-.016-4.708,0-.076-.01-.153-.018-.255-2.326,0-4.622-.006-6.915,0a2.048,2.048,0,0,1-2.1-1.654c-.074-.46,0-.941-.032-1.411a3.585,3.585,0,0,0-.149-.9,1.67,1.67,0,0,0-3.169.132,4.162,4.162,0,0,0-.116.909c-.014.343.028.69.01,1.033A1.976,1.976,0,0,1,11.1,29.431c-2-.012-4.01-.01-6.016-.014-.341,0-.684,0-1.025,0M29.55,25.457c.072.01.114.018.159.02q3.4.03,6.8.056a2.047,2.047,0,0,1,2.107,1.939c.026.379.006.763.018,1.142a3.4,3.4,0,0,0,.058.7,1.643,1.643,0,0,0,1.84,1.21,1.493,1.493,0,0,0,1.443-1.3c.054-.576.02-1.16.05-1.738A2,2,0,0,1,42.9,25.9a2.3,2.3,0,0,1,1.4-.365h6.558c.327,0,.333-.008.3-.337a23.882,23.882,0,0,0-1.286-5.677A23.719,23.719,0,0,0,37.6,6.11a22.063,22.063,0,0,0-3.873-1.4c-.841-.217-1.694-.391-2.549-.542-.53-.092-1.074-.1-1.623-.151-.01.084-.016.128-.018.171,0,1.605,0,3.211-.018,4.816,0,.207.08.257.265.281a5.321,5.321,0,0,1,3.351,1.8,5.456,5.456,0,0,1,1.429,4.194,4.662,4.662,0,0,1-.253,1.138A5.533,5.533,0,0,1,29.782,20.3c-.179.034-.267.072-.265.283.02,1.415.024,2.83.032,4.244,0,.207,0,.411,0,.628M25.6,4.087c-.4,0-.779-.028-1.152.008s-.747.144-1.122.2a21.583,21.583,0,0,0-5.037,1.493A23.7,23.7,0,0,0,5.557,18.865a20.361,20.361,0,0,0-1.471,6.183c-.01.157-.032.311-.05.478.082.01.126.02.169.02,1.6,0,3.195-.014,4.792-.006.225,0,.3-.078.325-.285a4.954,4.954,0,0,1,.991-2.412,5.582,5.582,0,0,1,9.327.411,5.911,5.911,0,0,1,.728,2.063c.03.149.078.239.261.237,1.607-.012,3.213-.016,4.818-.022a1.057,1.057,0,0,0,.167-.03c0-.8,0-1.589,0-2.378.006-1.551.012-3.1.03-4.652a2.047,2.047,0,0,1,1.977-2c.5,0,1-.012,1.5-.026a1.671,1.671,0,0,0,.13-3.327c-.5-.04-1.013-.028-1.521-.03a2.1,2.1,0,0,1-1.563-.642,2.252,2.252,0,0,1-.55-1.66c0-2.185,0-4.373,0-6.558,0-.062-.006-.122-.008-.144" transform="translate(0 0)" fill="#fff"/>
        <path id="Trazado_609166" data-name="Trazado 609166" d="M44.195,18.653q2.176,0,4.355,0A2.029,2.029,0,0,1,50.731,20.8a27.2,27.2,0,0,1-.433,4.539,26.885,26.885,0,0,1-1.8,6.044A27.785,27.785,0,0,1,33.882,45.9a26.868,26.868,0,0,1-5.523,1.676,28.024,28.024,0,0,1-4.995.516,2.065,2.065,0,0,1-1.656-.684,1.824,1.824,0,0,1-.482-1.21q0-2.083.008-4.164c.006-.969.012-1.941.034-2.91,0-.191-.066-.231-.227-.249a5.578,5.578,0,0,1-4.806-5.705,5.361,5.361,0,0,1,3.171-4.8,8.8,8.8,0,0,1,1.623-.516c.191-.052.259-.11.257-.319-.01-2.276.016-4.553-.014-6.829a2.055,2.055,0,0,1,2.085-2.069c2.976.036,5.952.032,8.926.078a1.975,1.975,0,0,1,1.947,2.047c.012.371,0,.745.008,1.116A1.8,1.8,0,0,0,35.53,23.7a1.721,1.721,0,0,0,2.139-1.613c.012-.452,0-.907,0-1.361A2,2,0,0,1,39.7,18.7q2.246,0,4.491,0v-.042m2.49,3.915c-.074-.006-.128-.014-.181-.014-1.579.014-3.157.03-4.736.036-.189,0-.241.09-.285.249a9.7,9.7,0,0,1-.45,1.5,5.546,5.546,0,0,1-8.928,1.72,5.117,5.117,0,0,1-1.64-3.113c-.026-.207-.064-.375-.349-.375-1.561,0-3.121-.016-4.682-.024-.078,0-.155.012-.249.02v.267c0,2.033.01,4.064.006,6.095a7.854,7.854,0,0,1-.042.923,2.036,2.036,0,0,1-1.884,1.8c-.472.032-.945.012-1.417.014a1.639,1.639,0,0,0-1.736,1.7,1.6,1.6,0,0,0,1.732,1.66c.435-.016.871-.012,1.306,0A1.96,1.96,0,0,1,25,36.341a3.908,3.908,0,0,1,.179,1.2c0,2.1-.028,4.19-.044,6.285,0,.076.01.153.01.231,11.228-.664,20.907-10.295,21.537-21.489" transform="translate(16.339 18.753)" fill="#fff"/>
      </g>
    </g>
  </g>
</svg>
