<svg xmlns="http://www.w3.org/2000/svg" xmlns:xlink="http://www.w3.org/1999/xlink" width="146" height="146" viewBox="0 0 146 146">
  <defs>
    <clipPath id="clip-path">
      <rect id="Rectángulo_377622" data-name="Rectángulo 377622" width="96.424" height="96.935" fill="#fff"/>
    </clipPath>
  </defs>
  <g id="Grupo_1072355" data-name="Grupo 1072355" transform="translate(-268.516 -957.516)">
    <circle id="Elipse_5614" data-name="Elipse 5614" cx="73" cy="73" r="73" transform="translate(268.516 957.516)" fill="#0a5e6b"/>
    <g id="Grupo_1071978" data-name="Grupo 1071978" transform="translate(293.107 981.853)">
      <g id="Grupo_1071977" data-name="Grupo 1071977" transform="translate(0 0)" clip-path="url(#clip-path)">
        <path id="Trazado_609139" data-name="Trazado 609139" d="M32.521,0a16.25,16.25,0,0,1,6.653,2.975,7,7,0,0,0,5.48,1.64A41.687,41.687,0,0,1,59.408,6.464a1.091,1.091,0,0,0,1.309-.357,17.068,17.068,0,0,1,1.478-1.466,7.069,7.069,0,0,1,7.217-1.58,7.1,7.1,0,0,1,4.955,5.483c.049.208.111.414.168.613,6.581-.97,9.97,4.419,8.929,9a7.713,7.713,0,0,1,5.166,3.1,7.478,7.478,0,0,1,1.192,5.917c.328.091.619.183.913.254A7.336,7.336,0,0,1,94.61,39.4a24.464,24.464,0,0,1-2.259,2.291,1.617,1.617,0,0,0-.536,1.663,43.333,43.333,0,0,1-1.943,22.462C83.354,83.176,70.9,93.717,52.539,96.436A45.748,45.748,0,0,1,1.215,60.891C-1.666,48.162.6,36.224,7.711,25.244c.759-1.172,1.811-1.478,2.793-.842a1.933,1.933,0,0,1,.368,2.9A41.312,41.312,0,0,0,3.991,53.9a86,86,0,0,0,1.635,9,6.126,6.126,0,0,0,.351.839,7.151,7.151,0,0,1,.688-1.021c6.841-6.858,13.71-13.687,20.528-20.568,1.635-1.649,3.323-3.012,5.842-2.721,0-.884-.037-1.666.006-2.445.168-3.141.294-6.287.571-9.42a14.7,14.7,0,0,0-1.2-7.283A29.229,29.229,0,0,0,27.4,12.646c-1.5.887-2.99,1.8-4.513,2.656a3.465,3.465,0,0,1-1.566.531,1.657,1.657,0,0,1-1.646-1.327,1.769,1.769,0,0,1,.745-2.077c1.218-.784,2.47-1.518,3.709-2.268.268-.163.542-.311.736-.419a25.725,25.725,0,0,1-.454-3.395A6.263,6.263,0,0,1,28.824.371c.351-.117.7-.248,1.047-.371ZM59.188,63.75c3.067-1.632,6.022-3.235,9.006-4.784a23.64,23.64,0,0,0,5.985-4.413c4.45-4.516,8.955-8.977,13.439-13.462,1.338-1.338,2.71-2.644,4-4.028a3.549,3.549,0,0,0-1.58-5.911,3.667,3.667,0,0,0-3.58.941A1.877,1.877,0,0,1,83.9,29.349c.468-.511,1-.964,1.446-1.495a3.565,3.565,0,0,0-1.931-5.817,3.649,3.649,0,0,0-3.318.953,1.885,1.885,0,1,1-2.542-2.781c.388-.414.807-.8,1.2-1.21A3.576,3.576,0,1,0,73.7,13.941c-.525.5-1.01,1.05-1.578,1.495a1.849,1.849,0,0,1-2.419-.194,1.885,1.885,0,0,1-.234-2.348c.171-.265.4-.488.588-.742a3.571,3.571,0,0,0-5.215-4.81c-.24.205-.456.436-.679.659q-6.123,6.123-12.25,12.244a2.1,2.1,0,0,1-2.8.516A4.948,4.948,0,0,1,46.745,18.3c-1.078-1.954-2.125-3.942-3.392-5.777A21.03,21.03,0,0,0,34.569,4.7a12.324,12.324,0,0,0-3.449-.867,2.483,2.483,0,0,0-2.65,1.443,2.966,2.966,0,0,0,.317,3.212c.371.508.83.95,1.247,1.421A34.453,34.453,0,0,1,35.4,17.772c1.512,3.121,2.528,6.4,1.963,9.868a56.663,56.663,0,0,0-.348,13.111,2.628,2.628,0,0,0,.71,1.529q10.437,10.505,20.93,20.962c.22.22.451.428.536.508M47.96,80.772l-26.984-27a.737.737,0,0,0-.143.108q-6.556,6.551-13.12,13.1a.846.846,0,0,0-.154,1.152c5.791,12.232,15.174,20.18,28.262,23.732a1.238,1.238,0,0,0,1.406-.368c2.251-2.3,4.536-4.559,6.812-6.829,1.335-1.335,2.676-2.664,3.92-3.9m-6.635,12C67.966,96.293,91.772,72.952,88.272,45.84c-.282.262-.531.485-.767.722C83.733,50.33,80,54.144,76.17,57.844A29.194,29.194,0,0,1,71.7,61.3c-1.5.973-3.175,1.672-4.75,2.533-1.546.844-3.078,1.72-4.581,2.639a1.008,1.008,0,0,0-.365.873A6.15,6.15,0,0,1,60.2,73.882q-9.033,8.965-18.006,17.989c-.262.265-.516.539-.867.9M23.877,50.824q13.539,13.548,26.91,26.918c2.4-2.356,4.875-4.73,7.28-7.177a1.918,1.918,0,0,0-.254-2.8q-11.93-11.947-23.88-23.877a1.984,1.984,0,0,0-3.087-.006c-2.339,2.3-4.65,4.624-6.969,6.938M45.218,8.344c1.709,2.73,3.383,5.409,4.972,7.953,2.154-2.122,4.407-4.339,6.7-6.6A41.637,41.637,0,0,0,45.218,8.344" transform="translate(0 0.001)" fill="#fff"/>
        <path id="Trazado_609140" data-name="Trazado 609140" d="M6.457,9.881a1.868,1.868,0,1,1,.031-3.734,1.867,1.867,0,1,1-.031,3.734" transform="translate(8.457 11.389)" fill="#fff"/>
        <path id="Trazado_609141" data-name="Trazado 609141" d="M12.447,17.1a1.872,1.872,0,1,1,0,3.743,1.872,1.872,0,0,1,0-3.743" transform="translate(19.635 31.68)" fill="#fff"/>
      </g>
    </g>
  </g>
</svg>
