<svg xmlns="http://www.w3.org/2000/svg" xmlns:xlink="http://www.w3.org/1999/xlink" width="124" height="124" viewBox="0 0 124 124">
  <defs>
    <clipPath id="clip-path">
      <rect id="Rect치ngulo_377642" data-name="Rect치ngulo 377642" width="50.549" height="66.654" fill="#fff"/>
    </clipPath>
  </defs>
  <g id="Grupo_1072370" data-name="Grupo 1072370" transform="translate(-740 -1684)">
    <g id="Grupo_1071988" data-name="Grupo 1071988" transform="translate(471 726)">
      <circle id="Elipse_5614" data-name="Elipse 5614" cx="62" cy="62" r="62" transform="translate(269 958)" fill="#0a5e6b"/>
    </g>
    <path id="Sustracci칩n_110" data-name="Sustracci칩n 110" d="M11024,11764h-29v-27.489a62.518,62.518,0,0,1,29,.4V11764Z" transform="translate(-10206.998 -10051)" fill="#fff"/>
    <text id="_02" data-name="02" transform="translate(793 1706)" fill="#0a5e6b" font-size="16" font-family="Roboto-Black, Roboto" font-weight="800"><tspan x="0" y="0">02</tspan></text>
    <g id="Grupo_1072099" data-name="Grupo 1072099" transform="translate(777 1721.673)">
      <g id="Grupo_1072098" data-name="Grupo 1072098" transform="translate(0 0)" clip-path="url(#clip-path)">
        <path id="Trazado_609151" data-name="Trazado 609151" d="M41.878,4.687c.2,0,.372,0,.54,0a24.473,24.473,0,0,1,3.06.078A5.721,5.721,0,0,1,49.9,7.975a6.5,6.5,0,0,1,.643,3.046q-.006,4.994,0,9.986,0,19.308.006,38.616a9.694,9.694,0,0,1-.253,2.691,5.779,5.779,0,0,1-3.266,3.8,6.43,6.43,0,0,1-2.769.542q-19.018,0-38.039,0a6,6,0,0,1-6.217-6.2Q0,40.111,0,19.773c0-3-.008-6.008.006-9.011A5.975,5.975,0,0,1,3.964,5.036a7.074,7.074,0,0,1,2.45-.353c.653-.014,1.3-.014,1.955,0,.234,0,.306-.06.306-.3-.006-.85-.021-1.7.039-2.549a1.983,1.983,0,0,1,1.7-1.77A4.872,4.872,0,0,1,11.151,0L39.5,0a2.293,2.293,0,0,1,2.14,1.13,2.1,2.1,0,0,1,.232,1.1c.012.8,0,1.608,0,2.459M8.676,8.916a1.125,1.125,0,0,0-.189-.045c-.924,0-1.846-.016-2.767,0a1.532,1.532,0,0,0-1.356.9,1.99,1.99,0,0,0-.2.994q0,17.666,0,35.332,0,7.271,0,14.544a1.691,1.691,0,0,0,1.282,1.781,3.664,3.664,0,0,0,1.041.1q18.732.006,37.466,0c.236,0,.472.01.707,0a1.776,1.776,0,0,0,1.727-1.8c0-.335-.006-.67-.006-1q0-21.381,0-42.765,0-3.189.008-6.375A1.608,1.608,0,0,0,44.839,8.9c-.91-.041-1.826-.023-2.738-.039-.2,0-.218.1-.218.253,0,.805-.018,1.61-.006,2.415a2.094,2.094,0,0,1-1.762,2.029c-.3.029-.6.041-.893.041q-13.809,0-27.619,0c-.327,0-.651-.006-.976-.027a2.044,2.044,0,0,1-1.918-1.81,10.607,10.607,0,0,1-.033-1.084c-.006-.585,0-1.173,0-1.758M37.712,4.128h-.218q-12.206,0-24.411,0c-.214,0-.271.06-.271.275.014,1.573.023,3.147.014,4.72,0,.273.074.331.329.331q12.056-.012,24.113-.01h.444Z" transform="translate(0 0)" fill="#fff"/>
        <path id="Trazado_609152" data-name="Trazado 609152" d="M9.791,23.033c1.647-1.627,3.253-3.214,4.862-4.8a2.339,2.339,0,0,1,1.239-.733,2.066,2.066,0,0,1,2.171.943,2.2,2.2,0,0,1-.17,2.35c-.462.542-.969,1.048-1.475,1.551q-2.434,2.422-4.88,4.827a2.364,2.364,0,0,1-1.317.8A2.038,2.038,0,0,1,8.38,27.4Q6.6,25.632,4.821,23.867c-.166-.166-.331-.335-.5-.5a2.053,2.053,0,0,1,2.606-3.147,5.7,5.7,0,0,1,.7.633c.723.721,1.438,1.45,2.159,2.179" transform="translate(3.939 18.405)" fill="#fff"/>
        <path id="Trazado_609153" data-name="Trazado 609153" d="M9.843,29.02c.647-.661,1.255-1.292,1.871-1.912q1.433-1.445,2.88-2.875a3.508,3.508,0,0,1,.787-.608,1.967,1.967,0,0,1,2.551.583,2.017,2.017,0,0,1-.082,2.574c-.577.647-1.2,1.249-1.82,1.861Q13.7,30.968,11.348,33.28a2.012,2.012,0,0,1-2.991.062C7,32,5.653,30.649,4.305,29.3a2.006,2.006,0,0,1-.563-1.584A1.9,1.9,0,0,1,4.9,25.986a1.876,1.876,0,0,1,2.091.226,15.874,15.874,0,0,1,1.239,1.173c.526.522,1.041,1.054,1.614,1.635" transform="translate(3.941 24.641)" fill="#fff"/>
        <path id="Trazado_609154" data-name="Trazado 609154" d="M9.814,17.2c1.666-1.676,3.26-3.278,4.849-4.886a2.192,2.192,0,0,1,1.637-.783,1.983,1.983,0,0,1,1.826,1.158,1.89,1.89,0,0,1-.24,2.183c-.639.713-1.337,1.372-2.013,2.05q-2.157,2.16-4.321,4.309a3.606,3.606,0,0,1-.707.585,1.908,1.908,0,0,1-2.456-.322c-1.019-.988-2.015-2-3.019-3-.359-.357-.725-.709-1.072-1.076a2.075,2.075,0,0,1-.033-2.806A1.949,1.949,0,0,1,7.1,14.439c.842.764,1.629,1.592,2.436,2.395a3.566,3.566,0,0,1,.281.361" transform="translate(3.935 12.147)" fill="#fff"/>
        <path id="Trazado_609155" data-name="Trazado 609155" d="M21.105,17.257q-3.349,0-6.7,0a2.164,2.164,0,0,1-2.1-2.1,2.125,2.125,0,0,1,2.148-2.068c2.884-.008,5.767,0,8.651,0,1.555,0,3.11,0,4.664,0a2.08,2.08,0,0,1,2.064,2.695,2.135,2.135,0,0,1-1.976,1.471q-3.377,0-6.753,0" transform="translate(12.97 13.792)" fill="#fff"/>
        <path id="Trazado_609156" data-name="Trazado 609156" d="M21.127,24.947h6.753a2.153,2.153,0,0,1,1.943,1.436,2.039,2.039,0,0,1-.8,2.341,2.272,2.272,0,0,1-1.3.382c-4.412-.008-8.824-.021-13.236,0a2.221,2.221,0,0,1-2.175-1.935,2.181,2.181,0,0,1,1.738-2.212,1.442,1.442,0,0,1,.3-.016l3.389,0h3.391Z" transform="translate(12.968 26.29)" fill="#fff"/>
        <path id="Trazado_609157" data-name="Trazado 609157" d="M21.127,19.028c2.187,0,4.377,0,6.564,0a2.071,2.071,0,0,1,1.9.935,2.042,2.042,0,0,1-1.341,3.134,4.517,4.517,0,0,1-.783.058q-6.43.006-12.858,0a2.217,2.217,0,0,1-1.582-.524,2.032,2.032,0,0,1,1.07-3.559,4.918,4.918,0,0,1,.649-.041q3.189-.006,6.375,0" transform="translate(12.97 20.052)" fill="#fff"/>
      </g>
    </g>
  </g>
</svg>
